<svg width="78" height="24" viewBox="0 0 78 24" fill="none" xmlns="http://www.w3.org/2000/svg">
<path d="M0 0H23.9837V12.0703C23.9837 15.1645 22.3341 18.0239 19.6564 19.5712L11.9919 24L4.32737 19.5712C1.64956 18.0239 0 15.1645 0 12.0703V0Z" fill="#FFDD2D" style="fill:#FFDD2D;fill:color(display-p3 1.0000 0.8667 0.1765);fill-opacity:1;"/>
<path fill-rule="evenodd" clip-rule="evenodd" d="M6.59402 6.3522V10.106C7.10591 9.52632 8.03661 9.13401 9.10075 9.13401H10.2572V13.4977C10.2572 14.6587 9.94262 15.6748 9.47589 16.2338H14.5061C14.0403 15.6743 13.7265 14.6594 13.7265 13.4999V9.13401H14.883C15.9471 9.13401 16.8778 9.52632 17.3897 10.106V6.3522H6.59402Z" fill="#333333" style="fill:#333333;fill:color(display-p3 0.2000 0.2000 0.2000);fill-opacity:1;"/>
<path d="M29.5724 16.2338V6.37772H39.5761V8.63107H32.5556V10.0402H36.0315C38.4939 10.0402 40.3231 10.6035 40.3231 13.1378C40.3231 15.672 38.4939 16.2354 36.0315 16.2354H29.5724V16.2338ZM32.5556 12.292V13.982H36.0456C37.0592 13.982 37.2978 13.7854 37.2978 13.1378C37.2978 12.4902 37.0592 12.2935 36.0456 12.2935H32.5556V12.292Z" fill="#333333" style="fill:#333333;fill:color(display-p3 0.2000 0.2000 0.2000);fill-opacity:1;"/>
<path d="M56.8375 12.5728V16.2338H53.8543V6.37769H56.8375V9.96838H61.7201V6.37769H64.7033V16.2338H61.7201V12.5728H56.8375Z" fill="#333333" style="fill:#333333;fill:color(display-p3 0.2000 0.2000 0.2000);fill-opacity:1;"/>
<path d="M69.5094 12.5167V16.2338H66.5262V6.37769H69.5094V10.0526H71.2966L74.4061 6.37769H77.7822L73.8852 10.9811V11.1637L77.9803 16.2322H74.2797L71.2825 12.5151H69.5094V12.5167Z" fill="#333333" style="fill:#333333;fill:color(display-p3 0.2000 0.2000 0.2000);fill-opacity:1;"/>
<path d="M49.1058 14.7841H44.4478L43.927 16.2338H40.8034L44.702 6.37769H49.0076L52.8906 16.2338H49.6267L49.1058 14.7841ZM48.3043 12.5307L46.9257 8.64508H46.6716L45.2649 12.5307H48.3043Z" fill="#333333" style="fill:#333333;fill:color(display-p3 0.2000 0.2000 0.2000);fill-opacity:1;"/>
</svg>
